<svg width="86" height="35" viewBox="0 0 86 35" fill="none" xmlns="http://www.w3.org/2000/svg"><path d="M4.547 26.319c0-3.5-.3-6.9-.4-10.4v-1c0 .1.1.2.1.4.5 1.4 1.1 2.7 1.8 3.9.7 1.2 1.1 2.6 1.5 3.9-.2.2-.3.4-.2.6 0 .2.1.2.2.3.5.5 1.5.2 2.1 0 .2-.1.5-.2.7-.4.3-.2.7-.6.6-1 0-.1 0-.2-.1-.2.4-1.1.6-2.2.8-3.3.2-1.2.7-2.3 1.1-3.5 0 .5.1 1 .1 1.6.2 2.1 0 4.3 0 6.4 0 .7 0 1.4.2 2.1.1.3.3 1.5.2 1.6-.5.5-.4 1.1.3 1.2.8.2 1.8-.1 2.3-.6 1-.9.5-2.4.3-3.6-.4-2 .1-4.2 0-6.2-.1-2.3-.4-4.5-.4-6.8 0-1.8.3-3.7-.3-5.5 0-.2.1-.4.1-.6.2-.9-2.8-.4-3.2.4-.3.2-.4.5-.3.8 0 .1.1.1.1.2-.6 2.7-1.3 5.3-2.2 7.9-.3 1-.7 2-1.1 3-.5-.9-1-1.9-1.4-2.8-1.2-2.9-2.2-5.8-3.6-8.6.2-1.3-2.7-1.2-3.3 0-.7 1.4-.6 2.9-.4 4.4.3 1.7.3 3.4.3 5.1 0 3.3.3 6.7.4 10-.3.3-.4.7-.1 1.2.1.2.3.3.5.5 1.2.7 3.3.2 3.3-1Zm18.2-18.4c-.1-.6-3.4.1-3.3.9.3 1.8.2 3.6.1 5.4 0 1.7.4 3.3.6 5 .2 1.7-.1 3.5.1 5.2.1.8.6 2.3.1 3-.4.4 1.2.3 1.3.3.6-.1 1.5-.3 1.9-.9.6-.7.2-2 0-2.8-.3-1.7-.1-3.5-.2-5.3-.1-1.7-.6-3.3-.7-4.9.3-2 .4-3.9.1-5.9Zm3.2 6.7c.9 2.5 4.6 1.3 6.6 1.5 3.2.2 2.3 4.6 2.3 6.6 0 1.1 1 2.9.2 3.8-.5.6-1.7.6-2.4.6-.7.1-1.9.3-2.3-.4-.8-1.2.1-3.2-.1-4.6-.1-.8-3.4-.1-3.3.9.3 2.2-1.2 5.2 2 5.6 2.1.2 4.4-.1 6.3-.8 1-.3 1.9-.8 2.7-1.5.9-.8.6-2 .4-3-.6-2.5.6-5.3-1-7.5-1.7-2.3-5-.7-7.2-1.3-1.2-.2-1.2-1.8-1.2-2.8 0-1.2-.1-2.3-.2-3.5-.1-.9 0-1.8.6-2.4.1-.1.7-.3.7-.3.3-.1.6-.1.9-.1 1.3-.1 3.9.2 3.4 2.1-.2.9 3 .4 3.3-.5 1-3.9-6.1-3.1-8.2-2.6-1.9.5-3.9 1.6-4 3.7-.1 1 .2 2 .3 3 0 1.2-.3 2.4.2 3.5Zm14.4 1.9c-.1 1.8-.2 3.6-.2 5.4 0 .9.1 1.8.3 2.8.1.8.4 2 .2 2.8-.2.6 3 .2 3.3-.6.5-1.5-.2-3.4-.3-4.9-.1-1.5 0-2.9.1-4.4 1.7-.1 3.4-.2 5.1 0 .1 1.2.2 2.3.3 3.5.1 1 .2 1.9.2 2.9 0 .9.1 2.1-.2 2.9-.7 1.7 2.7 1.6 3.1.3.6-1.6.4-3.5.3-5.2-.3-2.2-.6-4.2-.6-6.3-.1-3.2-.6-6.3-.6-9.5 0-1.7-3.3-1.1-3.3.3 0 3 .4 6 .6 9.1v.2c-1.6 0-3.3.1-4.9.2.2-3.9-.5-7.8-.4-11.7 0-.5-3.3-.1-3.3.9-.2 3.8.4 7.5.3 11.3Zm14.1 5.3c-.3.3-.2.4 0 .5 0 1.5 0 2.9-.2 4.4-.4.6.4 1 .9 1h.1c.6 0 2.2-.3 2.3-1.1.2-1.8.2-3.5.2-5.3 1.3-1.4 2.4-3.1 3.4-4.7.6 1.2 1.2 2.5 1.7 3.9.7 2.3 1.9 4.4 2.6 6.8.5 1.5 3.8.6 3.3-.9-.7-2.3-1.9-4.5-2.6-6.8-.8-2.3-2-4.4-3-6.6.8-1.6 1.7-3.3 2.5-5 .7-1.5 1.2-3.2 2.6-4.3.5-.4.5-.8-.2-.8-.7-.1-1.7.2-2.3.6-1.3 1-2 2.2-2.7 3.6-.8 1.7-1.6 3.4-2.5 5.1-.1.1-.1.2-.2.4-.4.3-.7.6-.5 1.1-.7 1.3-1.3 2.6-2.1 3.9-.3-4.7-.8-9.3-1-14 0-1.1-3.3-.4-3.3.9.2 5.7 1 11.5 1 17.3Zm31.5-6.2c-.2-.7-1.2-.7-1.9-.6v-.8c-.1-2.2-.1-4.5-.3-6.8-.2-2.1-1.3-2.8-3.3-2.7-2 .1-4.4.4-6.3 1.2-2.2.9-3.4 2.5-3.8 4.8-.5 2.5.2 5.2.3 7.8.1 3 .1 5.9.1 8.9 0 .5 3.3 0 3.3-.9v-7c0-.7 0-1.4-.1-2.1 1.2-.5 3.1 0 4.3.1.9.1 1.8-.1 2.7-.2 0 1.9.1 3.9.2 5.9 0 1 .4 3-.3 3.8-.4.4 1.2.3 1.3.3.7-.1 1.5-.3 1.9-.9.8-.9.4-3.2.3-4.3-.1-1.6-.1-3.2-.1-4.8.8-.4 1.9-1 1.7-1.7Zm-6.6-.2c-1.9 0-3.8-.3-5.7 0-.1-1.1-.2-2.1-.3-3.2-.1-2 .1-4.7 1.9-5.9.5-.3 1.4-.3 2-.4.8-.1 1.6-.3 2.4.2 1 .7.8 3.1.8 4.1 0 1.7.2 3.4.3 5.1-.5.1-1 .1-1.4.1Zm-60.2-11.3c0 .2 0 .4.1.5v.4c.1.2.2.3.4.4.3.2.7.2 1.1.2.4 0 .9-.2 1.2-.4l.2-.2c.4-.3.8-.7.6-1.1-.4-.9-.4-1.9-.3-2.9 0-.8-.8-1.1-1.5-1-.6.1-1.8.5-1.8 1.3s-.1 1.7.1 2.5c-.1.1-.1.2-.1.3Zm61.5 29.2c-1.6-.6-3.3-.6-4.9-.8-1.6-.2-3.2-.4-4.9-.6-1.6.1-3.3 0-5 .1l-4.9.3c-6.5.3-13 .3-19.5.1-6.5-.1-13-.5-19.6-.5-3.3 0-6.6.1-9.9.3-1.6.3-3.2.5-4.9.9-1.6.4-3.1.9-4.8 1 1.6.4 3.3.3 5 .3 1.6 0 3.2.1 4.9.2 3.2-.2 6.5-.2 9.7-.3 6.5 0 13 .3 19.6.5 6.5.1 13.1.2 19.7-.1l4.9-.3c1.6-.1 3.2-.1 4.8-.1 1.6-.1 3.3-.3 4.9-.5 1.7-.2 3.2-.6 4.9-.5h.1v-.6c0 .4 0 .5-.1.6Z" fill="#000"/></svg>