<svg xmlns="http://www.w3.org/2000/svg">    <style>:root svg:not(:target) {display: none}</style>    <svg id="telegram" viewBox="0 0 50 50">        <path fill="currentColor"              d="M 25 2 C 12.309288 2 2 12.309297 2 25 C 2 37.690703 12.309288 48 25 48 C 37.690712 48 48 37.690703 48 25 C 48 12.309297 37.690712 2 25 2 z M 25 4 C 36.609833 4 46 13.390175 46 25 C 46 36.609825 36.609833 46 25 46 C 13.390167 46 4 36.609825 4 25 C 4 13.390175 13.390167 4 25 4 z M 34.087891 14.035156 C 33.403891 14.035156 32.635328 14.193578 31.736328 14.517578 C 30.340328 15.020578 13.920734 21.992156 12.052734 22.785156 C 10.984734 23.239156 8.9960938 24.083656 8.9960938 26.097656 C 8.9960938 27.432656 9.7783594 28.3875 11.318359 28.9375 C 12.146359 29.2325 14.112906 29.828578 15.253906 30.142578 C 15.737906 30.275578 16.25225 30.34375 16.78125 30.34375 C 17.81625 30.34375 18.857828 30.085859 19.673828 29.630859 C 19.666828 29.798859 19.671406 29.968672 19.691406 30.138672 C 19.814406 31.188672 20.461875 32.17625 21.421875 32.78125 C 22.049875 33.17725 27.179312 36.614156 27.945312 37.160156 C 29.021313 37.929156 30.210813 38.335938 31.382812 38.335938 C 33.622813 38.335938 34.374328 36.023109 34.736328 34.912109 C 35.261328 33.299109 37.227219 20.182141 37.449219 17.869141 C 37.600219 16.284141 36.939641 14.978953 35.681641 14.376953 C 35.210641 14.149953 34.672891 14.035156 34.087891 14.035156 z M 34.087891 16.035156 C 34.362891 16.035156 34.608406 16.080641 34.816406 16.181641 C 35.289406 16.408641 35.530031 16.914688 35.457031 17.679688 C 35.215031 20.202687 33.253938 33.008969 32.835938 34.292969 C 32.477938 35.390969 32.100813 36.335938 31.382812 36.335938 C 30.664813 36.335938 29.880422 36.08425 29.107422 35.53125 C 28.334422 34.97925 23.201281 31.536891 22.488281 31.087891 C 21.863281 30.693891 21.201813 29.711719 22.132812 28.761719 C 22.899812 27.979719 28.717844 22.332938 29.214844 21.835938 C 29.584844 21.464938 29.411828 21.017578 29.048828 21.017578 C 28.923828 21.017578 28.774141 21.070266 28.619141 21.197266 C 28.011141 21.694266 19.534781 27.366266 18.800781 27.822266 C 18.314781 28.124266 17.56225 28.341797 16.78125 28.341797 C 16.44825 28.341797 16.111109 28.301891 15.787109 28.212891 C 14.659109 27.901891 12.750187 27.322734 11.992188 27.052734 C 11.263188 26.792734 10.998047 26.543656 10.998047 26.097656 C 10.998047 25.463656 11.892938 25.026 12.835938 24.625 C 13.831938 24.202 31.066062 16.883437 32.414062 16.398438 C 33.038062 16.172438 33.608891 16.035156 34.087891 16.035156 z"/>    </svg>    <svg id="github" viewBox="0 0 50 50">        <path fill="currentColor"              d="M 25 2 C 12.354545 2 2 12.354545 2 25 C 2 37.645455 12.354545 48 25 48 C 37.645455 48 48 37.645455 48 25 C 48 12.354545 37.645455 2 25 2 z M 25 4 C 36.554545 4 46 13.445455 46 25 C 46 25.093716 45.993426 25.185862 45.992188 25.279297 C 45.355643 25.213574 44.619449 25.151947 43.683594 25.113281 C 42.349262 25.058153 40.667887 25.070474 38.767578 25.169922 C 38.842322 24.665304 38.893164 24.152982 38.894531 23.626953 C 38.991361 21.754332 38.362521 20.002464 37.339844 18.455078 C 37.586913 17.601352 37.876747 16.515218 37.949219 15.283203 C 38.031819 13.878925 37.910599 12.321765 36.783203 11.269531 L 36.494141 11 L 36.099609 11 C 33.416539 11 31.580023 12.12321 30.457031 13.013672 C 28.835529 12.386022 27.01222 12 25 12 C 22.976367 12 21.135525 12.391416 19.447266 13.017578 C 18.324911 12.126691 16.486785 11 13.800781 11 L 13.408203 11 L 13.119141 11.267578 C 12.020956 12.287321 11.919778 13.801759 11.988281 15.199219 C 12.048691 16.431506 12.321732 17.552142 12.564453 18.447266 C 11.524489 20.02486 10.900391 21.822018 10.900391 23.599609 C 10.900391 24.101066 10.946801 24.590099 11.013672 25.072266 C 7.8894658 24.970983 5.518755 25.05331 4.0039062 25.191406 C 4.0033241 25.127325 4 25.064213 4 25 C 4 13.445455 13.445455 4 25 4 z M 14.396484 13.130859 C 16.414067 13.322043 17.931995 14.222972 18.634766 14.847656 L 19.103516 15.261719 L 19.681641 15.025391 C 21.263092 14.374205 23.026984 14 25 14 C 26.973016 14 28.737393 14.376076 30.199219 15.015625 L 30.785156 15.273438 L 31.263672 14.847656 C 31.966683 14.222758 33.487184 13.321554 35.505859 13.130859 C 35.774256 13.575841 36.007486 14.208668 35.951172 15.166016 C 35.883772 16.311737 35.577304 17.559658 35.345703 18.300781 L 35.195312 18.783203 L 35.494141 19.191406 C 36.483616 20.540691 36.988121 22.000937 36.902344 23.544922 L 36.900391 23.572266 L 36.900391 23.599609 C 36.900391 26.095064 36.00178 28.092339 34.087891 29.572266 C 32.174048 31.052199 29.152663 32 24.900391 32 C 20.648118 32 17.624827 31.052192 15.710938 29.572266 C 13.797047 28.092339 12.900391 26.095064 12.900391 23.599609 C 12.900391 22.134903 13.429308 20.523599 14.40625 19.191406 L 14.699219 18.792969 L 14.558594 18.318359 C 14.326866 17.530484 14.042825 16.254103 13.986328 15.101562 C 13.939338 14.14294 14.166221 13.537027 14.396484 13.130859 z M 8.8867188 26.019531 C 9.5909207 26.024035 10.397743 26.051943 11.203125 26.080078 C 11.281506 26.399647 11.374577 26.712873 11.484375 27.019531 C 8.1709433 27.091537 5.704398 27.434455 4.1835938 27.728516 C 4.1171404 27.221899 4.0664333 26.710385 4.0371094 26.193359 C 5.1545506 26.089867 6.7502168 26.005867 8.8867188 26.019531 z M 41.113281 26.076172 C 43.242845 26.051402 44.834805 26.164134 45.957031 26.283203 C 45.927668 26.764345 45.879919 27.240812 45.818359 27.712891 C 44.245568 27.413519 41.71721 27.071329 38.314453 27.015625 C 38.411856 26.742348 38.491935 26.461309 38.564453 26.177734 C 39.462674 26.126533 40.338362 26.085185 41.113281 26.076172 z M 37.892578 28.007812 C 41.465652 28.03978 44.085317 28.396925 45.666016 28.699219 C 44.325335 36.167288 39.008358 42.292747 32 44.789062 L 32 39.599609 C 32 38.015041 31.479642 36.267712 30.574219 34.810547 C 30.299322 34.368135 29.975945 33.949736 29.615234 33.574219 C 31.930453 33.11684 33.832364 32.298821 35.3125 31.154297 C 36.44296 30.280162 37.297012 29.208854 37.892578 28.007812 z M 11.908203 28.013672 C 12.505054 29.212023 13.359546 30.281496 14.488281 31.154297 C 16.028825 32.345531 18.031623 33.177838 20.476562 33.623047 C 20.156699 33.951698 19.86578 34.312595 19.607422 34.693359 L 19.546875 34.640625 C 19.552375 34.634325 19.04975 34.885878 18.298828 34.953125 C 17.547906 35.020374 16.621615 35 15.800781 35 C 14.575781 35 14.03621 34.42121 13.173828 33.367188 C 12.696283 32.72356 12.114101 32.202331 11.548828 31.806641 C 10.970021 31.401475 10.476259 31.115509 9.8652344 31.013672 L 9.7832031 31 L 9.6992188 31 C 9.2325521 31 8.7809835 31.03379 8.359375 31.515625 C 8.1485707 31.756544 8.003277 32.202561 8.0976562 32.580078 C 8.1920352 32.957595 8.4308563 33.189581 8.6445312 33.332031 C 10.011254 34.24318 10.252795 36.046511 11.109375 37.650391 C 11.909298 39.244315 13.635662 40 15.400391 40 L 18 40 L 18 44.789062 C 10.997174 42.294717 5.68379 36.176856 4.3378906 28.716797 C 5.863528 28.419405 8.4148311 28.06385 11.908203 28.013672 z M 23.699219 34.099609 L 26.5 34.099609 C 27.312821 34.099609 28.180423 34.7474 28.875 35.865234 C 29.569577 36.983069 30 38.484177 30 39.599609 L 30 45.390625 C 28.396051 45.785878 26.721908 46 25 46 C 23.278092 46 21.603949 45.785878 20 45.390625 L 20 39.599609 C 20 38.508869 20.467828 37.011307 21.208984 35.888672 C 21.950141 34.766037 22.886398 34.099609 23.699219 34.099609 z M 12.308594 35.28125 C 13.174368 36.179258 14.222525 37 15.800781 37 C 16.579948 37 17.552484 37.028073 18.476562 36.945312 C 18.479848 36.945018 18.483042 36.943654 18.486328 36.943359 C 18.36458 37.293361 18.273744 37.645529 18.197266 38 L 15.400391 38 C 14.167057 38 13.29577 37.55443 12.894531 36.751953 L 12.886719 36.738281 L 12.880859 36.726562 C 12.716457 36.421191 12.500645 35.81059 12.308594 35.28125 z"/>    </svg>    <svg id="vkontakte" viewBox="0 0 50 50">        <path fill="currentColor"              d="M 25 2 C 12.309295 2 2 12.309295 2 25 C 2 37.690705 12.309295 48 25 48 C 37.690705 48 48 37.690705 48 25 C 48 12.309295 37.690705 2 25 2 z M 25 4 C 36.609824 4 46 13.390176 46 25 C 46 36.609824 36.609824 46 25 46 C 13.390176 46 4 36.609824 4 25 C 4 13.390176 13.390176 4 25 4 z M 15.001953 18 L 10.966797 18.001953 C 10.966797 18.001953 10.735897 17.988941 10.457031 18.025391 C 10.178165 18.061841 9.7661948 18.078761 9.34375 18.556641 L 9.3417969 18.558594 L 9.3398438 18.560547 C 8.9640794 18.990267 8.9784173 19.490413 9.0253906 19.765625 C 9.0721906 20.039824 9.1769621 20.244579 9.1777344 20.246094 L 9.1777344 20.248047 C 9.2165294 20.343227 12.146379 27.521928 15.839844 31.378906 C 18.445099 34.101283 21.231404 35 23.712891 35 L 25 35 C 25.42346 35 25.801654 34.98073 26.220703 34.763672 C 26.639753 34.546613 27 33.94757 27 33.482422 C 27 32.981247 27.012312 32.495404 27.076172 32.224609 C 27.135819 31.971721 27.112802 32.033791 27.136719 32.033203 C 27.160692 32.038405 27.204328 32.048513 27.287109 32.085938 C 27.465502 32.166587 27.741146 32.346633 28.046875 32.583984 C 28.657377 33.057945 29.380504 33.745554 30.191406 34.277344 C 31.352856 35.04712 32.613281 35 32.613281 35 L 36.769531 35 L 36.814453 34.996094 C 36.814453 34.996094 37.452209 34.981594 38.107422 34.580078 C 38.435028 34.379319 38.82436 34.011034 38.955078 33.458984 C 39.085796 32.906935 38.918888 32.327748 38.597656 31.818359 C 38.480305 31.631523 37.910631 30.80588 35.636719 28.787109 C 35.049256 28.26609 34.648638 27.897278 34.490234 27.701172 C 34.433996 27.631548 34.42928 27.638269 34.417969 27.634766 C 34.431219 27.600573 34.5626 27.32391 34.914062 26.867188 C 35.280366 26.391181 35.836997 25.727944 36.552734 24.816406 C 37.464977 23.654213 38.105035 22.536703 38.507812 21.59375 C 38.709203 21.122274 38.851959 20.694455 38.9375 20.306641 C 39.02304 19.918826 39.091299 19.59647 38.964844 19.136719 C 38.870524 18.794484 38.614371 18.487968 38.363281 18.326172 C 38.112191 18.164376 37.878094 18.103431 37.667969 18.064453 C 37.247723 17.986493 36.876935 18 36.53125 18 C 35.80744 18 32.589808 18.025391 32.324219 18.025391 C 32.012508 18.025391 31.515256 18.155199 31.285156 18.287109 C 30.713891 18.614265 30.535156 19.0625 30.535156 19.0625 L 30.480469 19.158203 L 30.449219 19.265625 C 30.449219 19.265625 29.716532 21.635827 28.962891 22.857422 L 28.960938 22.857422 C 28.074746 24.296534 27.41371 24.867373 27.123047 25.029297 C 27.092172 25.046497 27.109277 25.03736 27.087891 25.048828 C 27.065156 24.982615 27.036471 24.891447 27.017578 24.722656 C 26.975067 24.342427 27 23.806967 27 23.289062 C 27 21.854646 27.107725 20.960184 26.988281 20.113281 C 26.928559 19.68983 26.776516 19.21826 26.429688 18.855469 C 26.082858 18.492678 25.634863 18.3141 25.1875 18.210938 L 25.185547 18.210938 C 24.719313 18.10357 24.216872 18.011359 23.009766 18 C 21.471766 17.98566 20.470116 18.03334 19.580078 18.429688 L 19.570312 18.435547 L 19.5625 18.439453 C 19.210828 18.604643 18.933601 18.793991 18.689453 19.046875 C 18.567379 19.173317 18.422556 19.265395 18.322266 19.667969 C 18.272116 19.869256 18.266616 20.250091 18.494141 20.558594 C 18.721663 20.867097 19.040516 20.960144 19.228516 20.984375 C 19.193836 20.979875 19.376419 21.020055 19.517578 21.089844 C 19.658738 21.159634 19.781301 21.26012 19.8125 21.300781 L 19.8125 21.302734 C 19.79945 21.285784 19.935003 21.622642 19.970703 21.929688 C 20.006403 22.236732 20 22.484375 20 22.484375 L 19.998047 22.544922 L 20.003906 22.605469 C 20.003906 22.605469 20.065293 23.284928 20.033203 23.986328 C 20.017153 24.337028 19.972824 24.690015 19.914062 24.90625 C 19.910955 24.917687 19.909535 24.913678 19.90625 24.923828 C 19.655877 24.748968 19.078554 24.13969 18.283203 22.826172 C 17.547974 21.611109 16.859375 19.425781 16.859375 19.425781 L 16.84375 19.376953 L 16.826172 19.330078 C 16.826172 19.330078 16.697788 18.841896 16.130859 18.443359 C 15.59948 18.069284 15.09375 18.017578 15.09375 18.017578 L 15.001953 18 z M 14.769531 20 C 14.826731 20.02091 14.946311 20.063999 14.96875 20.074219 L 14.945312 20.003906 C 14.945312 20.003906 14.976103 20.074602 14.976562 20.076172 C 14.976816 20.076308 14.980369 20.078025 14.980469 20.078125 L 14.980469 20.080078 L 14.982422 20.080078 C 14.932162 20.044918 14.974769 20.079819 14.980469 20.087891 C 15.008089 20.182121 15.618693 22.285424 16.572266 23.861328 C 17.440943 25.295947 18.08272 26.099662 18.783203 26.580078 C 19.483009 27.060029 20.424029 27.010564 20.902344 26.761719 C 21.541579 26.429749 21.720259 25.88414 21.84375 25.429688 C 21.967241 24.975234 22.011297 24.514175 22.03125 24.078125 C 22.06932 23.246137 22.004207 22.565534 21.998047 22.498047 C 21.999047 22.460457 22.007951 22.135402 21.957031 21.697266 C 21.905701 21.255789 21.813696 20.707151 21.421875 20.15625 C 21.860763 20.09104 22.104431 19.991744 22.990234 20 C 24.119875 20.01063 24.291711 20.05776 24.736328 20.160156 C 24.978465 20.215996 25.005345 20.262255 24.982422 20.238281 C 24.959502 20.214301 24.980423 20.198281 25.007812 20.392578 C 25.062629 20.781082 25 21.777479 25 23.289062 C 25 23.715159 24.958857 24.316046 25.029297 24.945312 C 25.099687 25.574186 25.296238 26.378841 26.056641 26.849609 C 26.489901 27.117751 27.317569 27.209968 28.097656 26.775391 C 28.877743 26.340815 29.678254 25.507138 30.664062 23.90625 C 31.637852 22.327814 32.220192 20.252559 32.283203 20.033203 C 32.283203 20.033203 32.294311 20.025979 32.300781 20.021484 C 32.318451 20.022334 32.29597 20.025391 32.324219 20.025391 C 32.69463 20.025391 35.85506 20 36.53125 20 C 36.717284 20 36.798956 20.010015 36.9375 20.015625 C 36.88151 20.23153 36.806235 20.482942 36.667969 20.806641 C 36.342997 21.567438 35.785273 22.554225 34.978516 23.582031 C 34.283253 24.467494 33.743119 25.109741 33.330078 25.646484 C 32.917037 26.183228 32.592563 26.606593 32.457031 27.21875 C 32.3215 27.830907 32.580091 28.521341 32.933594 28.958984 C 33.287097 29.396628 33.724557 29.765223 34.308594 30.283203 C 36.508681 32.236432 36.869649 32.827649 36.904297 32.882812 L 36.904297 32.884766 C 36.941447 32.943676 36.917361 32.88443 36.931641 32.914062 C 36.806889 32.952953 36.658409 32.99693 36.644531 33 L 32.597656 33 L 32.591797 33 C 32.591797 33 31.847477 32.9756 31.294922 32.609375 L 31.292969 32.607422 L 31.291016 32.607422 C 30.706463 32.224555 29.99998 31.567954 29.273438 31.003906 C 28.910166 30.721882 28.540311 30.457615 28.111328 30.263672 C 27.682345 30.069729 27.138651 29.932231 26.566406 30.103516 C 25.73815 30.351416 25.278492 31.139669 25.130859 31.765625 C 25.024881 32.214969 25.040549 32.605726 25.037109 32.998047 C 25.008582 32.999549 25.033273 33 25 33 L 23.712891 33 C 21.680377 33 19.565895 32.379527 17.285156 29.996094 C 14.319982 26.899649 11.674463 20.911604 11.277344 20.001953 L 14.769531 20 z M 32.212891 20.007812 C 32.194741 20.011856 32.246666 20.015777 32.289062 20.019531 C 32.283325 20.022641 32.289551 20.016779 32.28125 20.021484 C 32.28041 20.004775 32.237287 20.002377 32.212891 20.007812 z"/>    </svg>    <svg id="out-link" viewBox="0 0 50 50">        <path fill="currentColor" d="M 33.40625 0 C 32.855469 0.0507813 32.449219 0.542969 32.5 1.09375 C 32.550781 1.644531 33.042969 2.050781 33.59375 2 L 46.5625 2 L 25.6875 22.90625 C 25.390625 23.148438 25.253906 23.535156 25.339844 23.910156 C 25.425781 24.28125 25.71875 24.574219 26.089844 24.660156 C 26.464844 24.746094 26.851563 24.609375 27.09375 24.3125 L 48 3.4375 L 48 16.40625 C 47.996094 16.765625 48.183594 17.101563 48.496094 17.285156 C 48.808594 17.464844 49.191406 17.464844 49.503906 17.285156 C 49.816406 17.101563 50.003906 16.765625 50 16.40625 L 50 0 L 33.59375 0 C 33.5625 0 33.53125 0 33.5 0 C 33.46875 0 33.4375 0 33.40625 0 Z M 2 10 C 1.476563 10 0.941406 10.183594 0.5625 10.5625 C 0.183594 10.941406 0 11.476563 0 12 L 0 48 C 0 48.523438 0.183594 49.058594 0.5625 49.4375 C 0.941406 49.816406 1.476563 50 2 50 L 38 50 C 38.523438 50 39.058594 49.816406 39.4375 49.4375 C 39.816406 49.058594 40 48.523438 40 48 L 40 18 C 40.003906 17.640625 39.816406 17.304688 39.503906 17.121094 C 39.191406 16.941406 38.808594 16.941406 38.496094 17.121094 C 38.183594 17.304688 37.996094 17.640625 38 18 L 38 48 L 2 48 L 2 12 L 32 12 C 32.359375 12.003906 32.695313 11.816406 32.878906 11.503906 C 33.058594 11.191406 33.058594 10.808594 32.878906 10.496094 C 32.695313 10.183594 32.359375 9.996094 32 10 Z"/>    </svg></svg>