<svg xmlns="http://www.w3.org/2000/svg"><style>:root svg:not(:target){display:none}</style><svg id="telegram" viewBox="0 0 50 50"><path fill="currentColor" d="M25 2C12.31 2 2 12.31 2 25s10.31 23 23 23 23-10.31 23-23S37.69 2 25 2zm0 2c11.61 0 21 9.39 21 21s-9.39 21-21 21S4 36.61 4 25 13.39 4 25 4zm9.088 10.035c-.684 0-1.453.159-2.352.483-1.396.503-17.815 7.474-19.683 8.267-1.068.454-3.057 1.299-3.057 3.313 0 1.335.782 2.29 2.322 2.84.828.295 2.795.89 3.936 1.205.484.133.998.2 1.527.2 1.035 0 2.077-.257 2.893-.712-.007.168-.003.338.017.508.123 1.05.77 2.037 1.73 2.642.629.396 5.758 3.833 6.524 4.38 1.076.768 2.266 1.175 3.438 1.175 2.24 0 2.991-2.313 3.353-3.424.525-1.613 2.491-14.73 2.713-17.043.151-1.585-.51-2.89-1.767-3.492a3.645 3.645 0 0 0-1.594-.342zm0 2c.275 0 .52.046.728.147.473.227.714.733.641 1.498-.242 2.523-2.203 15.329-2.621 16.613-.358 1.098-.735 2.043-1.453 2.043-.718 0-1.503-.252-2.276-.805-.773-.552-5.906-3.994-6.619-4.443-.625-.394-1.286-1.376-.355-2.326.767-.782 6.585-6.43 7.082-6.926.37-.371.197-.818-.166-.818-.125 0-.275.052-.43.18-.608.496-9.084 6.168-9.818 6.624-.486.302-1.239.52-2.02.52-.333 0-.67-.04-.994-.13-1.128-.31-3.037-.89-3.795-1.16-.729-.26-.994-.508-.994-.954 0-.634.895-1.072 1.838-1.473.996-.423 18.23-7.742 19.578-8.227.624-.226 1.195-.363 1.674-.363z"/></svg><svg id="github" viewBox="0 0 50 50"><path fill="currentColor" d="M25 2C12.355 2 2 12.355 2 25s10.355 23 23 23 23-10.355 23-23S37.645 2 25 2zm0 2c11.555 0 21 9.445 21 21 0 .094-.007.186-.008.28a36.521 36.521 0 0 0-2.308-.167c-1.335-.055-3.016-.043-4.916.057.074-.505.125-1.017.127-1.543.096-1.873-.532-3.625-1.555-5.172.247-.854.537-1.94.61-3.172.082-1.404-.04-2.961-1.167-4.013l-.289-.27H36.1c-2.683 0-4.52 1.123-5.643 2.014A15.026 15.026 0 0 0 25 12a15.82 15.82 0 0 0-5.553 1.018C18.325 12.127 16.487 11 13.801 11h-.393l-.289.268c-1.098 1.02-1.2 2.534-1.13 3.931.06 1.233.333 2.353.575 3.248-1.04 1.578-1.664 3.375-1.664 5.153 0 .501.047.99.114 1.472-3.125-.101-5.495-.019-7.01.12 0-.065-.004-.128-.004-.192C4 13.445 13.445 4 25 4zm-10.604 9.13c2.018.192 3.536 1.093 4.239 1.718l.469.414.578-.237C21.263 14.375 23.027 14 25 14c1.973 0 3.737.376 5.2 1.016l.585.257.479-.425c.703-.625 2.223-1.526 4.242-1.717.268.445.501 1.078.445 2.035-.067 1.146-.374 2.394-.605 3.135l-.15.482.298.408c.99 1.35 1.494 2.81 1.408 4.354l-.002.027v.028c0 2.495-.898 4.492-2.812 5.972C32.174 31.052 29.153 32 24.9 32c-4.252 0-7.275-.948-9.19-2.428-1.913-1.48-2.81-3.477-2.81-5.972 0-1.465.53-3.076 1.506-4.409l.293-.398-.14-.475c-.232-.788-.516-2.064-.573-3.216-.047-.96.18-1.565.41-1.971zm-5.51 12.89a83.58 83.58 0 0 1 2.317.06c.079.32.172.633.281.94-3.313.072-5.78.414-7.3.709a20.895 20.895 0 0 1-.147-1.536c1.118-.103 2.713-.187 4.85-.173zm32.227.056c2.13-.025 3.722.088 4.844.207-.03.481-.077.958-.139 1.43-1.572-.3-4.1-.642-7.504-.697.098-.274.178-.555.25-.838a58.163 58.163 0 0 1 2.55-.102zm-3.22 1.932c3.573.032 6.192.389 7.773.691-1.34 7.468-6.658 13.594-13.666 16.09V39.6c0-1.584-.52-3.331-1.426-4.788a7.52 7.52 0 0 0-.959-1.237c2.315-.457 4.217-1.275 5.698-2.42a9.003 9.003 0 0 0 2.58-3.146zm-25.985.006a9.03 9.03 0 0 0 2.58 3.14c1.54 1.192 3.544 2.024 5.989 2.469-.32.329-.611.69-.87 1.07l-.06-.052c.005-.007-.497.245-1.248.312S16.622 35 15.8 35c-1.225 0-1.765-.579-2.627-1.633a7.098 7.098 0 0 0-1.625-1.56c-.579-.406-1.073-.691-1.684-.793L9.783 31H9.7c-.466 0-.918.034-1.34.516-.21.24-.356.687-.261 1.064.094.378.333.61.547.752 1.366.911 1.608 2.715 2.464 4.318.8 1.594 2.527 2.35 4.291 2.35H18v4.79c-7.003-2.495-12.316-8.613-13.662-16.073 1.526-.298 4.077-.653 7.57-.703zM23.7 34.1h2.8c.813 0 1.68.647 2.375 1.765C29.57 36.983 30 38.485 30 39.6v5.79a20.835 20.835 0 0 1-10 0V39.6c0-1.091.468-2.589 1.209-3.711.741-1.123 1.677-1.79 2.49-1.79zm-11.39 1.18c.864.9 1.913 1.72 3.49 1.72.779 0 1.751.028 2.676-.055l.01-.002c-.122.35-.213.703-.29 1.057H15.4c-1.233 0-2.104-.446-2.505-1.248l-.008-.014-.006-.011c-.165-.306-.38-.916-.572-1.446z"/></svg><svg id="vkontakte" viewBox="0 0 50 50"><path fill="currentColor" d="M25 2C12.31 2 2 12.31 2 25s10.31 23 23 23 23-10.31 23-23S37.69 2 25 2zm0 2c11.61 0 21 9.39 21 21s-9.39 21-21 21S4 36.61 4 25 13.39 4 25 4zm-9.998 14-4.035.002s-.231-.013-.51.023c-.279.037-.69.054-1.113.532l-.002.002-.002.002c-.376.43-.362.93-.315 1.205.047.274.152.479.153.48v.002c.039.095 2.968 7.274 6.662 11.13C18.445 34.102 21.23 35 23.713 35H25c.423 0 .802-.02 1.22-.236.42-.217.78-.816.78-1.282 0-.5.012-.987.076-1.257.06-.253.037-.191.06-.192a.7.7 0 0 1 .151.053c.179.08.454.26.76.498.61.474 1.334 1.162 2.144 1.693 1.162.77 2.422.723 2.422.723h4.157l.044-.004s.638-.014 1.293-.416c.328-.2.717-.569.848-1.121.13-.552-.036-1.131-.357-1.64-.118-.187-.687-1.013-2.961-3.032-.588-.52-.988-.89-1.147-1.086-.056-.07-.06-.063-.072-.066.013-.034.145-.311.496-.768.366-.476.923-1.14 1.639-2.05.912-1.163 1.552-2.28 1.955-3.223.201-.472.344-.9.43-1.287.085-.388.153-.71.027-1.17a1.497 1.497 0 0 0-.602-.81 1.837 1.837 0 0 0-.695-.263c-.42-.078-.791-.064-1.137-.064-.724 0-3.941.025-4.207.025-.311 0-.809.13-1.039.262-.571.327-.75.776-.75.776l-.055.095-.03.108s-.733 2.37-1.487 3.591h-.002c-.886 1.44-1.547 2.01-1.838 2.172l-.035.02a1.395 1.395 0 0 1-.07-.326c-.043-.38-.018-.916-.018-1.434 0-1.434.108-2.329-.012-3.176-.06-.423-.211-.895-.558-1.258-.347-.362-.795-.54-1.242-.644h-.002c-.467-.107-.97-.2-2.176-.211-1.538-.014-2.54.033-3.43.43l-.01.006-.008.003a2.85 2.85 0 0 0-.873.608c-.122.126-.266.218-.367.621-.05.201-.055.582.172.89.228.31.547.402.735.426-.035-.004.147.036.289.106.14.07.263.17.294.21v.003c-.013-.017.123.32.159.627.035.307.029.554.029.554l-.002.06.006.061s.061.68.03 1.381a4.77 4.77 0 0 1-.12.92c-.003.012-.004.008-.008.018-.25-.175-.827-.784-1.623-2.098-.735-1.215-1.424-3.4-1.424-3.4l-.015-.049-.018-.047s-.128-.488-.695-.887c-.532-.374-1.037-.425-1.037-.425L15.002 18zm-.232 2c.057.02.176.064.199.074l-.024-.07.032.072.003.002v.002h.002c-.05-.035-.007 0-.002.008.028.094.639 2.197 1.592 3.773.869 1.435 1.51 2.239 2.211 2.72.7.479 1.641.43 2.12.18.639-.331.817-.877.94-1.331.124-.455.168-.916.188-1.352.038-.832-.027-1.512-.033-1.58.001-.038.01-.363-.041-.8-.051-.442-.143-.99-.535-1.542.439-.065.682-.164 1.568-.156 1.13.01 1.302.058 1.746.16.242.056.27.102.246.078-.022-.024-.002-.04.026.155.055.388-.008 1.384-.008 2.896 0 .426-.041 1.027.03 1.656.07.63.266 1.434 1.027 1.905.433.268 1.26.36 2.04-.075.78-.434 1.581-1.268 2.567-2.869.974-1.578 1.556-3.653 1.62-3.873l.017-.012c.017.001-.005.004.023.004.37 0 3.531-.025 4.207-.025.186 0 .268.01.407.016a5.336 5.336 0 0 1-.27.79c-.325.761-.883 1.748-1.69 2.776-.695.885-1.235 1.528-1.648 2.064-.413.537-.737.96-.873 1.573-.136.612.123 1.302.477 1.74.353.438.79.806 1.375 1.324 2.2 1.953 2.56 2.545 2.595 2.6v.002c.037.059.013 0 .028.03l-.287.085h-4.053s-.745-.024-1.297-.39l-.002-.003h-.002c-.585-.382-1.291-1.039-2.018-1.603-.363-.282-.733-.546-1.162-.74-.429-.194-.972-.332-1.545-.16-.828.247-1.288 1.036-1.435 1.662-.106.449-.09.84-.094 1.232C25.01 33 25.033 33 25 33h-1.287c-2.033 0-4.147-.62-6.428-3.004-2.965-3.096-5.61-9.084-6.008-9.994L14.77 20zm17.443.008c-.018.004.034.008.076.012-.006.003 0-.003-.008.001 0-.016-.044-.019-.068-.013z"/></svg><svg id="out-link" viewBox="0 0 50 50"><path fill="currentColor" d="M33.406 0c-.55.05-.957.543-.906 1.094.05.55.543.957 1.094.906h12.968L25.689 22.906a1.004 1.004 0 0 0-.348 1.004c.086.371.379.664.75.75.375.086.762-.05 1.004-.348L48 3.438v12.97c-.004.359.184.695.496.878.313.18.695.18 1.008 0 .312-.183.5-.52.496-.879V0H33.406ZM2 10c-.523 0-1.059.184-1.438.563C.184 10.94 0 11.476 0 12v36c0 .523.184 1.059.563 1.438C.94 49.816 1.477 50 2 50h36c.523 0 1.059-.184 1.438-.563.378-.378.562-.914.562-1.437V18a1.006 1.006 0 0 0-.496-.879 1.01 1.01 0 0 0-1.008 0c-.312.184-.5.52-.496.879v30H2V12h30c.36.004.695-.184.879-.496a1.01 1.01 0 0 0 0-1.008c-.184-.312-.52-.5-.879-.496Z"/></svg></svg>